<svg xmlns="http://www.w3.org/2000/svg" width="32" height="32" viewBox="0 0 32 32">
  <g id="그룹_28612" data-name="그룹 28612" transform="translate(-45 -321)">
    <g id="그룹_28457" data-name="그룹 28457" transform="translate(45 321)">
      <circle id="타원_443" data-name="타원 443" cx="16" cy="16" r="16" transform="translate(0 0)" fill="#dd9a40"/>
      <circle id="타원_444" data-name="타원 444" cx="12.997" cy="12.997" r="12.997" transform="translate(2.916 2.916)" fill="#fdc375"/>
      <circle id="타원_445" data-name="타원 445" cx="10.868" cy="10.868" r="10.868" transform="translate(5.046 5.046)" fill="#dd9a40"/>
      <path id="패스_66348" data-name="패스 66348" d="M56.754,72.25l3.194,1.667a.644.644,0,0,0,.926-.694l-.6-3.565,2.592-2.5a.654.654,0,0,0-.37-1.111l-3.565-.509L57.355,62.3a.656.656,0,0,0-1.157,0l-1.574,3.241-3.565.509a.669.669,0,0,0-.37,1.111l2.592,2.5-.6,3.565a.656.656,0,0,0,.926.694Z" transform="translate(-40.838 -52.561)" fill="#fff"/>
    </g>
  </g>
</svg>
