<svg xmlns="http://www.w3.org/2000/svg" width="32" height="32" viewBox="0 0 32 32">
  <g id="그룹_28561" data-name="그룹 28561" transform="translate(-65 -694)">
    <g id="그룹_28543" data-name="그룹 28543">
      <path id="패스_66315" data-name="패스 66315" d="M70.405,288.542c.078-.056.155-.113.232-.169.144-.107.287-.215.427-.326l.132-.107c.168-.137.334-.275.5-.418l.044-.039a16.28,16.28,0,0,0,3.341-4.115l.03-.054q.165-.291.316-.59c.025-.049.049-.1.073-.147q.128-.256.246-.517c.035-.077.068-.154.1-.231q.088-.2.171-.409.066-.166.129-.333t.131-.362q.07-.2.135-.4c.018-.057.035-.113.053-.171q.061-.2.116-.4c.029-.107.058-.213.085-.32.02-.079.039-.158.058-.238.034-.143.066-.285.1-.428.013-.063.025-.126.037-.189q.041-.207.076-.415c.009-.055.019-.11.027-.166q.041-.261.074-.523c.006-.044.01-.09.015-.134q.028-.242.048-.485c0-.031.006-.062.008-.094.015-.185.025-.371.033-.557,0-.043,0-.087.005-.131.007-.191.011-.382.011-.574,0-.211-.005-.421-.014-.632,0-.039,0-.077,0-.115q-.014-.294-.038-.586c0-.052-.009-.1-.014-.155-.017-.188-.037-.375-.061-.562-.007-.055-.015-.109-.023-.163-.02-.145-.042-.29-.067-.434-.014-.082-.028-.165-.043-.247-.026-.142-.054-.283-.084-.424-.019-.089-.038-.177-.058-.266q-.049-.214-.1-.427-.041-.158-.086-.315c-.018-.063-.036-.125-.055-.188q-.084-.286-.179-.569l-.03-.088a16.008,16.008,0,1,0-6.86,18.855l.058-.036q.283-.173.558-.358C70.172,288.7,70.289,288.625,70.405,288.542Z" transform="translate(19.845 434.506)" fill="#cc1219"/>
    </g>
    <g id="_2703067_ruble_cash_coin_icon" data-name="2703067_ruble_cash_coin_icon" transform="translate(68 697)">
      <path id="패스_50045" data-name="패스 50045" d="M13,1A12,12,0,1,0,25,13,12.013,12.013,0,0,0,13,1Zm0,22.5A10.5,10.5,0,1,1,23.5,13,10.511,10.511,0,0,1,13,23.5Z" transform="translate(0 0)" fill="#fff"/>
      <path id="패스_50046" data-name="패스 50046" d="M13.124,5.875H10.157a.748.748,0,0,0-.73.764v5.729c-1.289,0-1.289,1.528,0,1.528v5.729a.731.731,0,1,0,1.46,0V13.9h2.238c2.638,0,4.785-1.8,4.785-4.01S15.762,5.875,13.124,5.875Zm0,6.493H10.887V7.4h2.238c1.833,0,3.325,1.114,3.325,2.482S14.957,12.368,13.124,12.368Z" transform="translate(0.14 -0.131)" fill="#fff"/>
    </g>
  </g>
</svg>
