<svg id="_04_-_Calendar" data-name="04 - Calendar" xmlns="http://www.w3.org/2000/svg" width="30" height="30" viewBox="0 0 30 30">
  <path id="패스_219" data-name="패스 219" d="M31,7.8a4,4,0,0,0-4-4H5a4,4,0,0,0-4,4V27a4,4,0,0,0,4,4H27a4,4,0,0,0,4-4V7.8Zm-2,0V27a2,2,0,0,1-2,2H5a2,2,0,0,1-2-2V7.8a2,2,0,0,1,2-2H27a2,2,0,0,1,2,2Z" transform="translate(-1 -1)" fill="#cc1219" fill-rule="evenodd"/>
  <path id="패스_220" data-name="패스 220" d="M8,2V7.6a1,1,0,1,0,2,0V2A1,1,0,0,0,8,2Z" transform="translate(-1 -1)" fill="#cc1219" fill-rule="evenodd"/>
  <path id="패스_221" data-name="패스 221" d="M2,14.2H30v-2H2Z" transform="translate(-1 -1)" fill="#cc1219" fill-rule="evenodd"/>
  <path id="패스_222" data-name="패스 222" d="M22,2V7.6a1,1,0,1,0,2,0V2a1,1,0,0,0-2,0Z" transform="translate(-1 -1)" fill="#cc1219" fill-rule="evenodd"/>
  <circle id="타원_2" data-name="타원 2" cx="1.505" cy="1.505" r="1.505" transform="translate(5.795 15.595)" fill="#cc1219"/>
  <circle id="타원_3" data-name="타원 3" cx="1.505" cy="1.505" r="1.505" transform="translate(13.495 15.595)" fill="#cc1219"/>
  <circle id="타원_4" data-name="타원 4" cx="1.505" cy="1.505" r="1.505" transform="translate(21.195 15.595)" fill="#cc1219"/>
  <circle id="타원_5" data-name="타원 5" cx="1.505" cy="1.505" r="1.505" transform="translate(21.195 22.486)" fill="#cc1219"/>
  <circle id="타원_6" data-name="타원 6" cx="1.505" cy="1.505" r="1.505" transform="translate(13.495 22.486)" fill="#cc1219"/>
  <circle id="타원_7" data-name="타원 7" cx="1.505" cy="1.505" r="1.505" transform="translate(5.795 22.486)" fill="#cc1219"/>
</svg>
