<svg xmlns="http://www.w3.org/2000/svg" width="260.176" height="119.14" viewBox="0 0 260.176 119.14">
  <g id="그룹_6" data-name="그룹 6" transform="translate(-69.863 -295.536)">
    <g id="그룹_5" data-name="그룹 5" transform="translate(69.863 295.536)">
      <g id="그룹_2" data-name="그룹 2" transform="translate(14.838)">
        <path id="패스_2" data-name="패스 2" d="M113.85,333.568a27.386,27.386,0,0,1-10.082-1.8,25.6,25.6,0,0,1-7.941-4.832l7-8.358a22.953,22.953,0,0,0,6.269,3.918,16.287,16.287,0,0,0,6.06,1.254,3.873,3.873,0,0,0,1.933-.418,1.315,1.315,0,0,0,.731-1.2,1.577,1.577,0,0,0-.183-.758,1.956,1.956,0,0,0-.81-.679q-.627-.339-1.828-.836t-3.187-1.228a39.715,39.715,0,0,1-4.44-1.907,12.7,12.7,0,0,1-3.109-2.168,7.858,7.858,0,0,1-1.828-2.69,9.4,9.4,0,0,1-.6-3.527,10.9,10.9,0,0,1,1.176-4.989,12.273,12.273,0,0,1,3.317-4.049,16.577,16.577,0,0,1,5.172-2.743,21.223,21.223,0,0,1,6.791-1.019A27.581,27.581,0,0,1,127.407,297a21.964,21.964,0,0,1,7.183,4.023l-7,8.359a21.345,21.345,0,0,0-4.859-2.873,14.178,14.178,0,0,0-5.694-1.2,4.636,4.636,0,0,0-1.933.339,1.25,1.25,0,0,0-.522,1.829,2.327,2.327,0,0,0,.836.6q.627.314,1.776.757t3.03,1.124a45.358,45.358,0,0,1,4.232,1.829,13.831,13.831,0,0,1,3.213,2.168,8.484,8.484,0,0,1,2.037,2.821,9.023,9.023,0,0,1,.705,3.683,12.062,12.062,0,0,1-1.123,5.172,11.857,11.857,0,0,1-3.239,4.153,15.873,15.873,0,0,1-5.2,2.769A22.271,22.271,0,0,1,113.85,333.568Z" transform="translate(-95.827 -295.536)" fill="#fff"/>
        <path id="패스_3" data-name="패스 3" d="M165.343,296.816h12.276a28.971,28.971,0,0,1,8.306.993,12.473,12.473,0,0,1,5.277,3.03,9.375,9.375,0,0,1,2.168,3.317,11.3,11.3,0,0,1,.705,4.049,15.082,15.082,0,0,1-1.254,6.243,13.418,13.418,0,0,1-3.631,4.806,16.761,16.761,0,0,1-5.825,3.108,25.623,25.623,0,0,1-7.784,1.1H170.41l-2.665,9.926H155.521Zm9.665,17.919q3.5,0,5.146-1.385a4.352,4.352,0,0,0,1.646-3.474,2.92,2.92,0,0,0-.889-2.142,3.5,3.5,0,0,0-1.62-.888,7.989,7.989,0,0,0-2.037-.261h-2.3l-2.142,8.15Z" transform="translate(-121.408 -296.085)" fill="#fff"/>
        <path id="패스_4" data-name="패스 4" d="M226.225,296.816h31.188l-2.717,10.03H235.524l-.993,3.709H252.4l-2.351,8.829H232.181l-1.1,3.97h19.433l-2.664,10.03H216.4Z" transform="translate(-147.498 -296.085)" fill="#fff"/>
        <path id="패스_5" data-name="패스 5" d="M287.747,296.816h31.188l-2.717,10.03H297.046l-.993,3.709H313.92l-2.351,8.829H293.7l-1.1,3.97h19.433l-2.664,10.03H277.926Z" transform="translate(-173.862 -296.085)" fill="#fff"/>
        <path id="패스_6" data-name="패스 6" d="M349.268,296.816h12.956A25.094,25.094,0,0,1,371,298.122a15.45,15.45,0,0,1,5.538,3.4q3.969,3.971,3.97,10.71a20.135,20.135,0,0,1-1.515,7.784,20.364,20.364,0,0,1-4.493,6.635,21.625,21.625,0,0,1-8.045,5.015,32.633,32.633,0,0,1-11.127,1.724H339.447Zm7.419,25.912a15.562,15.562,0,0,0,5.094-.784,9.479,9.479,0,0,0,3.683-2.194,9.021,9.021,0,0,0,1.881-2.847,8.469,8.469,0,0,0,.731-3.37,6.881,6.881,0,0,0-.392-2.508,5.025,5.025,0,0,0-1.123-1.724,5.773,5.773,0,0,0-2.3-1.358,11.591,11.591,0,0,0-3.6-.47H358.62l-4.075,15.254Z" transform="translate(-200.225 -296.085)" fill="#fff"/>
      </g>
      <g id="그룹_3" data-name="그룹 3" transform="translate(111.132 40.438)">
        <path id="패스_7" data-name="패스 7" d="M282.4,404.434a23.944,23.944,0,0,1-6.661-.94,17.116,17.116,0,0,1-5.8-2.9,14.376,14.376,0,0,1-4.075-5.041,16.432,16.432,0,0,1-1.541-7.418,21.3,21.3,0,0,1,1.7-8.464,20.732,20.732,0,0,1,4.832-6.948,22.819,22.819,0,0,1,7.6-4.7,27.609,27.609,0,0,1,10-1.724,23,23,0,0,1,4.936.522,25.165,25.165,0,0,1,4.362,1.358,18.3,18.3,0,0,1,3.527,1.933,12.714,12.714,0,0,1,2.481,2.246l-7.627,7.837a12.415,12.415,0,0,0-3.787-2.377,12.169,12.169,0,0,0-4.676-.914,12.375,12.375,0,0,0-4.676.836,10.122,10.122,0,0,0-3.474,2.273,9.847,9.847,0,0,0-2.168,3.4,11.4,11.4,0,0,0-.758,4.153,7.084,7.084,0,0,0,.575,2.978,6.31,6.31,0,0,0,1.541,2.116,6.2,6.2,0,0,0,2.272,1.28,8.848,8.848,0,0,0,2.717.418,7.894,7.894,0,0,0,3.187-.574l1.2-3.919h-6.007l1.985-7.783h17.605l-5.224,18.606a28.448,28.448,0,0,1-14.053,3.752Z" transform="translate(-264.329 -366.298)" fill="#fff"/>
        <path id="패스_8" data-name="패스 8" d="M350.887,404.421a20.459,20.459,0,0,1-7.366-1.28,17.651,17.651,0,0,1-5.746-3.5,15.616,15.616,0,0,1-3.735-5.251,16.03,16.03,0,0,1-1.333-6.53,20.653,20.653,0,0,1,1.646-8.123,22.318,22.318,0,0,1,4.519-6.87,21.438,21.438,0,0,1,6.817-4.728,20.826,20.826,0,0,1,8.542-1.75,20.447,20.447,0,0,1,7.366,1.28,17.686,17.686,0,0,1,5.747,3.5,15.661,15.661,0,0,1,3.735,5.25,16.037,16.037,0,0,1,1.332,6.53,20.646,20.646,0,0,1-1.645,8.123,22.326,22.326,0,0,1-4.519,6.87,21.453,21.453,0,0,1-6.817,4.727A20.824,20.824,0,0,1,350.887,404.421Zm.836-10.762a6.992,6.992,0,0,0,3.474-.862,9.014,9.014,0,0,0,2.638-2.22,10.2,10.2,0,0,0,1.7-3.083,10.432,10.432,0,0,0,.6-3.448,8.1,8.1,0,0,0-.444-2.717,6.582,6.582,0,0,0-1.28-2.194,5.631,5.631,0,0,0-2.116-1.463,7.626,7.626,0,0,0-2.9-.522,7,7,0,0,0-3.474.862,9.008,9.008,0,0,0-2.638,2.221,10.172,10.172,0,0,0-1.7,3.082,10.4,10.4,0,0,0-.6,3.448,8.08,8.08,0,0,0,.444,2.716,6.548,6.548,0,0,0,1.28,2.194,5.643,5.643,0,0,0,2.09,1.462A7.554,7.554,0,0,0,351.723,393.659Z" transform="translate(-293.631 -366.337)" fill="#fff"/>
        <path id="패스_9" data-name="패스 9" d="M408.53,367.669h12.225l-7,26.121H430.42L427.6,404.238h-28.89Z" transform="translate(-321.915 -366.885)" fill="#fff"/>
        <path id="패스_10" data-name="패스 10" d="M464.2,367.669h30.614l-2.821,10.448H473.606l-1.254,4.65h17.083l-2.56,9.508H469.792l-3.187,11.963H454.381Z" transform="translate(-345.772 -366.885)" fill="#fff"/>
      </g>
      <g id="그룹_4" data-name="그룹 4" transform="translate(0 43.848)">
        <path id="패스_11" data-name="패스 11" d="M236.184,476.1c-34.443,3.023-58.676.375-74.321,4.458,0,0,7.529-24.272,2.414-30.266,0,0,6.088-6.258,53.537,12.242,24.661,9.615,44.324,9.537,67.755,6.2" transform="translate(-109.288 -405.264)" fill="#fff" fill-rule="evenodd"/>
        <path id="패스_12" data-name="패스 12" d="M151.872,429.067s-3.5-9.913-15.526-16.269c0,0,22.533-9.034,61.813,13.508,62.612,35.931,86.122,19.966,128.851,2.22,0,0-53.477,43.979-117.864,14.612C209.147,443.139,175.466,426.476,151.872,429.067Z" transform="translate(-98.353 -388.868)" fill="#fff" fill-rule="evenodd"/>
        <path id="패스_13" data-name="패스 13" d="M69.863,382.626s.4-3.576,32.152,8.26c0,0,45.226-5.351,81.007,20.64,34.038,24.725,71.536,18.553,119.231-1.365,0,0-75.218,27.239-107.935,1.4C165.07,388.468,119.067,355.141,69.863,382.626Z" transform="translate(-69.863 -372.264)" fill="#fff" fill-rule="evenodd"/>
      </g>
    </g>
  </g>
</svg>
