<svg xmlns="http://www.w3.org/2000/svg" width="34" height="34" viewBox="0 0 34 34">
  <g id="그룹_28049" data-name="그룹 28049" transform="translate(-215 -747)">
    <g id="그룹_28044" data-name="그룹 28044" transform="translate(215 747.217)">
      <rect id="사각형_31387" data-name="사각형 31387" width="34" height="34" rx="17" transform="translate(0 -0.217)" fill="#fff"/>
    </g>
    <g id="_172518_phone_icon" data-name="172518_phone_icon" transform="translate(223.87 755.87)">
      <path id="패스_50047" data-name="패스 50047" d="M5.436,10.428s.748,1.307.928,1.649a.98.98,0,0,1,.095.909c-.2.325-2.014,3.054-2.175,3.283a.778.778,0,0,1-1.071.025C2.762,15.979.981,14.528,1,13.913s.076-3.177,4.907-8.007S13.3,1.019,13.914,1,15.982,2.761,16.3,3.212a.788.788,0,0,1-.025,1.072c-.252.182-2.972,1.976-3.284,2.174a.969.969,0,0,1-.909-.095c-.342-.179-1.649-.927-1.649-.927A16.024,16.024,0,0,0,7.748,7.745,16.1,16.1,0,0,0,5.436,10.428Z" transform="translate(-0.615 -0.614)"/>
    </g>
  </g>
</svg>
