<svg xmlns="http://www.w3.org/2000/svg" width="44" height="44" viewBox="0 0 44 44">
  <g id="그룹_28169" data-name="그룹 28169" transform="translate(-356 -1332.827)">
    <rect id="사각형_30851" data-name="사각형 30851" width="44" height="44" transform="translate(356 1332.827)" fill="rgba(204,18,25,0.2)" opacity="0"/>
    <path id="패스_66199" data-name="패스 66199" d="M13,10.25a3.073,3.073,0,0,0,3-3.125A3.073,3.073,0,0,0,13,4a3.073,3.073,0,0,0-3,3.125A3.073,3.073,0,0,0,13,10.25Zm0,3.125a3.128,3.128,0,0,0,0,6.25,3.128,3.128,0,0,0,0-6.25Zm0,9.375A3.128,3.128,0,0,0,13,29a3.128,3.128,0,0,0,0-6.25Z" transform="translate(365.5 1338.327)" fill="#cc1219"/>
  </g>
</svg>
