<svg xmlns="http://www.w3.org/2000/svg" width="18.039" height="16.686" viewBox="0 0 18.039 16.686">
  <path id="sound" d="M2.255,3.833A2.215,2.215,0,0,0,0,6.088V10.6a2.215,2.215,0,0,0,2.255,2.255H4.209l4.81,3.833V0L4.209,3.833Zm12.777,4.51A6.219,6.219,0,0,0,13.3,4.059a.744.744,0,1,0-1.052,1.052,4.726,4.726,0,0,1,0,6.464.727.727,0,0,0,0,1.052.727.727,0,0,0,1.052,0A6.219,6.219,0,0,0,15.032,8.343ZM13.98.225a.808.808,0,0,0-1.052.15.808.808,0,0,0,.15,1.052,8.644,8.644,0,0,1,0,13.83.808.808,0,0,0-.15,1.052.684.684,0,0,0,.6.3,1.068,1.068,0,0,0,.451-.15,10.147,10.147,0,0,0,0-16.235Z" fill="#fff"/>
</svg>
