<svg xmlns="http://www.w3.org/2000/svg" width="44" height="44" viewBox="0 0 44 44">
  <g id="그룹_28168" data-name="그룹 28168" transform="translate(3672 -1508)">
    <rect id="사각형_30848" data-name="사각형 30848" width="44" height="44" transform="translate(-3672 1508)" fill="rgba(204,18,25,0.2)" opacity="0"/>
    <g id="그룹_27884" data-name="그룹 27884" transform="translate(-46.268 232.895)">
      <g id="그룹_27883" data-name="그룹 27883" transform="translate(-3616.732 1286.345)">
        <g id="그룹_27882" data-name="그룹 27882" transform="translate(0 1.249)">
          <g id="그룹_27870" data-name="그룹 27870">
            <path id="패스_66220" data-name="패스 66220" d="M26.111,3H5.889A2.693,2.693,0,0,0,3,5.417V22.334a2.693,2.693,0,0,0,2.889,2.417H26.111A2.693,2.693,0,0,0,29,22.334V5.417A2.693,2.693,0,0,0,26.111,3Z" transform="translate(-3 -3)" fill="none" stroke="#cc1219" stroke-width="2"/>
          </g>
        </g>
        <line id="선_52" data-name="선 52" x2="13.433" transform="translate(6.284 9.184)" fill="none" stroke="#cc1219" stroke-linecap="round" stroke-width="2"/>
        <line id="선_53" data-name="선 53" x2="6.954" transform="translate(6.345 15.024)" fill="none" stroke="#cc1219" stroke-linecap="round" stroke-width="2"/>
        <line id="선_54" data-name="선 54" y2="2.498" transform="translate(6.177)" fill="none" stroke="#cc1219" stroke-linecap="round" stroke-width="2"/>
        <line id="선_55" data-name="선 55" y2="2.498" transform="translate(19.823)" fill="none" stroke="#cc1219" stroke-linecap="round" stroke-width="2"/>
      </g>
    </g>
  </g>
</svg>
