<svg xmlns="http://www.w3.org/2000/svg" width="44" height="44" viewBox="0 0 44 44">
  <g id="그룹_28164" data-name="그룹 28164" transform="translate(-29 -2022.827)">
    <rect id="사각형_30847" data-name="사각형 30847" width="44" height="44" transform="translate(29 2022.827)" fill="rgba(204,18,25,0.2)" opacity="0"/>
    <path id="패스_66196" data-name="패스 66196" d="M12.973,25.9V18.7h5.652V25.9a1.431,1.431,0,0,0,1.413,1.441h4.239A1.431,1.431,0,0,0,25.69,25.9V15.817h2.4a.717.717,0,0,0,.466-1.254L16.746,3.712a1.4,1.4,0,0,0-1.893,0L3.039,14.563a.72.72,0,0,0,.466,1.254h2.4V25.9a1.431,1.431,0,0,0,1.413,1.441H11.56A1.431,1.431,0,0,0,12.973,25.9Z" transform="translate(34.698 2029.685)" fill="#fff" stroke="#000" stroke-width="1"/>
  </g>
</svg>
