<svg xmlns="http://www.w3.org/2000/svg" width="28" height="28" viewBox="0 0 28 28">
  <g id="그룹_7927" data-name="그룹 7927" transform="translate(-605.945 -546.945)">
    <g id="calendar_month_black_24dp" transform="translate(605.946 546.946)">
      <g id="그룹_7925" data-name="그룹 7925" transform="translate(0 0)">
        <rect id="사각형_28033" data-name="사각형 28033" width="28" height="28" transform="translate(0 0)" fill="none"/>
        <rect id="사각형_28034" data-name="사각형 28034" width="28" height="28" transform="translate(0 0)" fill="none"/>
      </g>
      <g id="그룹_7926" data-name="그룹 7926" transform="translate(3.111 6.902)">
        <path id="패스_34597" data-name="패스 34597" d="M20.438,2.333a1.213,1.213,0,0,0-1.21,1.21v1.21H9.549V3.543a1.21,1.21,0,1,0-2.42,0v1.21H5.92a2.409,2.409,0,0,0-2.408,2.42L3.5,24.111a2.419,2.419,0,0,0,2.42,2.42H22.858a2.427,2.427,0,0,0,2.42-2.42V7.173a2.427,2.427,0,0,0-2.42-2.42h-1.21V3.543A1.213,1.213,0,0,0,20.438,2.333Zm2.42,21.777H5.92v-12.1H22.858Zm-9.679-8.469a1.21,1.21,0,1,1,1.21,1.21A1.213,1.213,0,0,1,13.179,15.642Zm-4.839,0a1.21,1.21,0,1,1,1.21,1.21A1.213,1.213,0,0,1,8.339,15.642Zm9.679,0a1.21,1.21,0,1,1,1.21,1.21A1.213,1.213,0,0,1,18.018,15.642Zm-4.839,4.839a1.21,1.21,0,1,1,1.21,1.21A1.213,1.213,0,0,1,13.179,20.481Zm-4.839,0a1.21,1.21,0,1,1,1.21,1.21A1.213,1.213,0,0,1,8.339,20.481Zm9.679,0a1.21,1.21,0,1,1,1.21,1.21A1.213,1.213,0,0,1,18.018,20.481Z" transform="translate(-3.5 -7.333)" fill="#cc1219"/>
      </g>
    </g>
  </g>
</svg>
