<svg xmlns="http://www.w3.org/2000/svg" xmlns:xlink="http://www.w3.org/1999/xlink" width="92.654" height="104.235" viewBox="0 0 92.654 104.235">
  <defs>
    <clipPath id="clip-path">
      <rect id="사각형_31749" data-name="사각형 31749" width="92.654" height="104.235" transform="translate(0.054 0.543)"/>
    </clipPath>
  </defs>
  <g id="_9165443_horizontal_scroll_icon" data-name="9165443_horizontal_scroll_icon" transform="translate(-0.054 -0.543)" clip-path="url(#clip-path)">
    <path id="패스_66353" data-name="패스 66353" d="M96.161,57.278a29.682,29.682,0,0,0-1.487-7L94.592,50a7.6,7.6,0,0,0-4.528-4.93,8.641,8.641,0,0,0-9.353,1.357,9.5,9.5,0,0,0-6.406-5.719c-3.439-.922-6.234-.187-8.312,2.185-3.525-4.84-6.132-5.348-11.7-2.268q-.093-1.382-.177-2.751c-.145-2.285-.29-4.648-.52-6.956-.455-4.584-.972-9.507-1.676-14.494A16.114,16.114,0,0,0,48.806,9.1c-1.93-2.616-4.6-3.191-7.515-1.621a7.037,7.037,0,0,0-3.574,4.476,17.973,17.973,0,0,0-.679,3.945q-.061,1.306-.126,2.611c-.21,4.333-.428,8.813-.425,13.222,0,5.36.128,10.613.259,16.175q.077,3.239.145,6.529l-.1-.094a10.3,10.3,0,0,0-.8-.681c-5-3.668-10.316-4.943-15.8-3.793a7.028,7.028,0,0,0-5.149,4.162,7.314,7.314,0,0,0,.69,6.853,16.162,16.162,0,0,0,3.04,3.314,38.724,38.724,0,0,1,9.262,11.651c2.81,5.453,5.984,11.2,10.289,18.611a16.024,16.024,0,0,0,3.867,4.225A35.706,35.706,0,0,0,52.4,104.3a30.227,30.227,0,0,0,10.647,1.934,36.974,36.974,0,0,0,12.529-2.344,27.019,27.019,0,0,0,8.125-4.8c4.358-3.606,7.394-8.535,9.284-15.069A82.574,82.574,0,0,0,96.161,57.278ZM41.437,60.324c-.1-5.757-.224-11.836-.373-18.067-.03-1.282-.087-2.585-.145-3.844-.1-2.307-.2-4.693-.151-7.032.115-5.038.411-10.157.7-15.108l.084-1.444c.113-1.97.555-3.868,2.988-4.436a7.179,7.179,0,0,1,2.944,5.115,107.143,107.143,0,0,1,1.346,11c.334,4.817.586,9.722.83,14.466q.186,3.637.386,7.273c.084,1.511.7,2.384,1.878,2.67s2.171-.346,2.913-1.888l.333-.694c.688-1.438,1.4-2.924,2.207-4.317A2.6,2.6,0,0,1,60.2,42.529a2.871,2.871,0,0,1,2.319,2.544,28.865,28.865,0,0,1,.363,4.614c.008,2.113.283,3.148,1.823,3.316,1.51.164,2.033-.724,2.629-2.782a23.3,23.3,0,0,1,1.716-4.543c.933-1.73,2.043-2.116,4.1-1.425a4.981,4.981,0,0,1,3.6,4.005,27.388,27.388,0,0,1,.323,3.5q.022.45.048.9c.064,1.13.324,2.338,1.762,2.732s2.22-.5,2.847-1.535c.181-.3.357-.6.535-.9a18.886,18.886,0,0,1,1.723-2.593,3.287,3.287,0,0,1,6.055.766,22.853,22.853,0,0,1,1.879,12.447c-.494,4.687-1.212,9.66-2.259,15.649a29.263,29.263,0,0,1-5.289,12.043C81.779,94.852,77.981,97.382,72.754,99c-9.529,2.944-18.431,1.363-27.217-4.837a9.676,9.676,0,0,1-2.4-2.337,69.838,69.838,0,0,1-4.023-6.49c-2-3.72-3.95-7.576-5.807-11.463a40.949,40.949,0,0,0-11.5-14.815,8.368,8.368,0,0,1-2.019-2.344,1.909,1.909,0,0,1-.227-1.558,2.283,2.283,0,0,1,1.317-1.3,7.28,7.28,0,0,1,3.007-.638,8.821,8.821,0,0,1,1.677.167c4.488.862,7.319,2.5,9.185,5.321a11.917,11.917,0,0,1,1.239,2.956c.089.281.179.561.273.837.368,1.081.941,2.188,2.405,2.2h.021a2.49,2.49,0,0,0,2.475-2.12,8.884,8.884,0,0,0,.276-2.254Z" transform="translate(-3.82 -1.606)" fill="#fff"/>
    <path id="패스_66354" data-name="패스 66354" d="M12.32,4.772a1.859,1.859,0,0,0,.212-2.739c-.717-.711-1.651-.643-2.564.191C7.038,4.9,3.933,7.756.986,10.717a2.856,2.856,0,0,0-.579,2.762c2.262,3.309,4.729,6.639,7.34,9.9a1.89,1.89,0,0,0,1.476.672h.018A1.97,1.97,0,0,0,10.8,23.3a3.378,3.378,0,0,0,.449-2.675,6.309,6.309,0,0,0-1.289-2.129c-.113-.142-.226-.284-.334-.425-.766-1-1.552-1.967-2.384-2.992L6.4,14.032l.115-.04a1.253,1.253,0,0,1,.4-.1q3.2.016,6.4.041c3.309.024,6.617.048,9.925.054h.245a44.519,44.519,0,0,0,5.449-.21,2.479,2.479,0,0,0,2.291-2.382A2.343,2.343,0,0,0,29.078,8.9a32.7,32.7,0,0,0-5.413-.254c-3.662.142-7.383.345-10.979.541Q10.6,9.3,8.513,9.415l-.126-.2q.527-.592,1.058-1.182C10.394,6.966,11.376,5.871,12.32,4.772Z" transform="translate(-0.048 -0.265)" fill="#fff"/>
    <path id="패스_66355" data-name="패스 66355" d="M88.4,7.829q-2.13.062-4.259.111c-2.659.066-5.41.133-8.114.245a9.79,9.79,0,0,0-3.432.689A2.379,2.379,0,0,0,71.589,10.9c.025.61.958,1.215,1.474,1.382a5.5,5.5,0,0,0,1.822.161c.155,0,.309-.007.461-.007q3.629,0,7.258-.006,3.922-.005,7.845-.005c.386,0,.787.035,1.292.078l.468.04-.639.71c-.64.71-1.194,1.323-1.715,1.966q-.185.227-.375.455a10.736,10.736,0,0,0-1.655,2.4,2.721,2.721,0,0,0,.227,2.483,3.124,3.124,0,0,0,2.149.539l.246.007h.031a1.892,1.892,0,0,0,1.226-.653q.8-.885,1.6-1.767c1.979-2.182,4.026-4.44,5.911-6.764a2.612,2.612,0,0,0-.349-3.909c-2.451-2.336-5-4.611-7.562-6.763a2.45,2.45,0,0,0-2.276-.1c-.519.275-.721,1.433-.574,2.013a5.714,5.714,0,0,0,1.259,2.2,18.962,18.962,0,0,0,1.677,1.661c.209.193.434.4.673.621l-1.09.062C89.984,7.761,89.2,7.806,88.4,7.829Z" transform="translate(-18.939 -0.098)" fill="#fff"/>
  </g>
</svg>
