<svg id="그룹_11" data-name="그룹 11" xmlns="http://www.w3.org/2000/svg" width="59.274" height="27.143" viewBox="0 0 59.274 27.143">
  <g id="그룹_10" data-name="그룹 10">
    <g id="그룹_7" data-name="그룹 7" transform="translate(3.38)">
      <path id="패스_14" data-name="패스 14" d="M676.933,304.2a6.238,6.238,0,0,1-2.3-.411,5.83,5.83,0,0,1-1.809-1.1l1.595-1.9a5.231,5.231,0,0,0,1.428.893,3.712,3.712,0,0,0,1.381.286.883.883,0,0,0,.441-.1.3.3,0,0,0,.166-.274.36.36,0,0,0-.042-.173.446.446,0,0,0-.185-.155q-.143-.077-.417-.19t-.726-.28a9.031,9.031,0,0,1-1.012-.434,2.891,2.891,0,0,1-.708-.494,1.788,1.788,0,0,1-.417-.613,2.142,2.142,0,0,1-.137-.8,2.482,2.482,0,0,1,.268-1.137,2.8,2.8,0,0,1,.756-.922,3.776,3.776,0,0,1,1.178-.625,4.835,4.835,0,0,1,1.547-.232,6.284,6.284,0,0,1,2.077.333,5.007,5.007,0,0,1,1.637.916l-1.595,1.9a4.859,4.859,0,0,0-1.107-.655,3.23,3.23,0,0,0-1.3-.274,1.055,1.055,0,0,0-.44.077.285.285,0,0,0-.119.417.53.53,0,0,0,.19.137q.143.071.4.173t.69.256a10.327,10.327,0,0,1,.964.417,3.151,3.151,0,0,1,.732.494,1.936,1.936,0,0,1,.464.643,2.056,2.056,0,0,1,.161.839,2.748,2.748,0,0,1-.256,1.178,2.7,2.7,0,0,1-.738.946,3.617,3.617,0,0,1-1.184.631A5.073,5.073,0,0,1,676.933,304.2Z" transform="translate(-672.827 -295.536)" fill="#cc1219"/>
      <path id="패스_15" data-name="패스 15" d="M734.759,296.816h2.8a6.6,6.6,0,0,1,1.892.226,2.842,2.842,0,0,1,1.2.69,2.135,2.135,0,0,1,.494.756,2.571,2.571,0,0,1,.161.922,3.435,3.435,0,0,1-.286,1.422,3.054,3.054,0,0,1-.827,1.095,3.821,3.821,0,0,1-1.327.708,5.837,5.837,0,0,1-1.773.25h-1.178l-.607,2.261h-2.785Zm2.2,4.082a1.8,1.8,0,0,0,1.172-.315.992.992,0,0,0,.375-.791.665.665,0,0,0-.2-.488.8.8,0,0,0-.369-.2,1.821,1.821,0,0,0-.464-.059h-.524l-.488,1.857Z" transform="translate(-724.749 -296.649)" fill="#cc1219"/>
      <path id="패스_16" data-name="패스 16" d="M795.642,296.816h7.105l-.619,2.285H797.76l-.226.845h4.07l-.536,2.012H797l-.25.9h4.427l-.607,2.285H793.4Z" transform="translate(-777.706 -296.649)" fill="#cc1219"/>
      <path id="패스_17" data-name="패스 17" d="M857.164,296.816h7.105l-.619,2.285h-4.368l-.226.845h4.07l-.536,2.012h-4.07l-.25.9H862.7l-.607,2.285h-7.165Z" transform="translate(-831.218 -296.649)" fill="#cc1219"/>
      <path id="패스_18" data-name="패스 18" d="M918.685,296.816h2.952a5.717,5.717,0,0,1,2,.3,3.52,3.52,0,0,1,1.262.774,3.3,3.3,0,0,1,.9,2.44,4.589,4.589,0,0,1-.345,1.773,4.64,4.64,0,0,1-1.024,1.512,4.927,4.927,0,0,1-1.833,1.143,7.434,7.434,0,0,1-2.535.393h-3.618Zm1.69,5.9a3.545,3.545,0,0,0,1.16-.178,2.16,2.16,0,0,0,.839-.5,2.052,2.052,0,0,0,.428-.649,1.927,1.927,0,0,0,.167-.768,1.569,1.569,0,0,0-.089-.571,1.145,1.145,0,0,0-.256-.393,1.316,1.316,0,0,0-.524-.309,2.641,2.641,0,0,0-.821-.107h-.464l-.928,3.475Z" transform="translate(-884.729 -296.649)" fill="#cc1219"/>
    </g>
    <g id="그룹_8" data-name="그룹 8" transform="translate(25.318 9.213)">
      <path id="패스_19" data-name="패스 19" d="M845.447,374.986a5.455,5.455,0,0,1-1.517-.214,3.9,3.9,0,0,1-1.321-.661,3.276,3.276,0,0,1-.928-1.148,3.743,3.743,0,0,1-.351-1.69,4.851,4.851,0,0,1,.387-1.928,4.726,4.726,0,0,1,1.1-1.583,5.2,5.2,0,0,1,1.732-1.071,6.289,6.289,0,0,1,2.279-.393,5.233,5.233,0,0,1,1.124.119,5.729,5.729,0,0,1,.994.309,4.163,4.163,0,0,1,.8.44,2.9,2.9,0,0,1,.565.512l-1.738,1.785a2.828,2.828,0,0,0-.863-.542,2.771,2.771,0,0,0-1.065-.208,2.821,2.821,0,0,0-1.065.19,2.305,2.305,0,0,0-.791.518,2.244,2.244,0,0,0-.494.774,2.6,2.6,0,0,0-.173.946,1.613,1.613,0,0,0,.131.678,1.435,1.435,0,0,0,.351.482,1.414,1.414,0,0,0,.518.292,2.018,2.018,0,0,0,.619.1,1.8,1.8,0,0,0,.726-.131l.274-.893h-1.369l.452-1.773h4.011l-1.19,4.239a6.483,6.483,0,0,1-3.2.855Z" transform="translate(-841.329 -366.298)" fill="#cc1219"/>
      <path id="패스_20" data-name="패스 20" d="M913.849,375.054a4.66,4.66,0,0,1-1.678-.292,4.022,4.022,0,0,1-1.309-.8,3.558,3.558,0,0,1-.851-1.2,3.653,3.653,0,0,1-.3-1.488,4.707,4.707,0,0,1,.375-1.851,5.083,5.083,0,0,1,1.03-1.565,4.881,4.881,0,0,1,1.553-1.077,4.743,4.743,0,0,1,1.946-.4,4.655,4.655,0,0,1,1.678.292,4.026,4.026,0,0,1,1.309.8,3.568,3.568,0,0,1,.851,1.2,3.651,3.651,0,0,1,.3,1.488,4.706,4.706,0,0,1-.375,1.851,5.082,5.082,0,0,1-1.03,1.565,4.888,4.888,0,0,1-1.553,1.077A4.744,4.744,0,0,1,913.849,375.054Zm.191-2.452a1.593,1.593,0,0,0,.791-.2,2.055,2.055,0,0,0,.6-.506,2.323,2.323,0,0,0,.387-.7,2.378,2.378,0,0,0,.137-.785,1.847,1.847,0,0,0-.1-.619,1.5,1.5,0,0,0-.292-.5,1.282,1.282,0,0,0-.482-.333,1.738,1.738,0,0,0-.661-.119,1.593,1.593,0,0,0-.791.2,2.053,2.053,0,0,0-.6.506,2.318,2.318,0,0,0-.387.7,2.367,2.367,0,0,0-.137.786,1.839,1.839,0,0,0,.1.619,1.491,1.491,0,0,0,.292.5,1.284,1.284,0,0,0,.476.333A1.72,1.72,0,0,0,914.039,372.6Z" transform="translate(-900.804 -366.377)" fill="#cc1219"/>
      <path id="패스_21" data-name="패스 21" d="M977.947,367.669h2.785l-1.595,5.951h3.8l-.643,2.38h-6.582Z" transform="translate(-958.214 -367.491)" fill="#cc1219"/>
      <path id="패스_22" data-name="패스 22" d="M1033.619,367.669h6.974l-.643,2.38h-4.189l-.286,1.059h3.892l-.583,2.166h-3.892l-.726,2.725h-2.785Z" transform="translate(-1006.637 -367.491)" fill="#cc1219"/>
    </g>
    <g id="그룹_9" data-name="그룹 9" transform="translate(0 9.99)">
      <path id="패스_23" data-name="패스 23" d="M755.8,455.383c-7.847.689-13.368.085-16.932,1.016,0,0,1.715-5.53.55-6.9,0,0,1.387-1.426,12.2,2.789,5.619,2.19,10.1,2.173,15.436,1.413" transform="translate(-726.885 -439.245)" fill="#cc1219" fill-rule="evenodd"/>
      <path id="패스_24" data-name="패스 24" d="M716.883,415.124a7.522,7.522,0,0,0-3.537-3.707s5.133-2.058,14.082,3.078c14.264,8.186,19.621,4.549,29.355.506,0,0-12.183,10.02-26.852,3.329C729.932,418.33,722.259,414.534,716.883,415.124Z" transform="translate(-704.69 -405.965)" fill="#cc1219" fill-rule="evenodd"/>
      <path id="패스_25" data-name="패스 25" d="M646.863,374.624s.092-.815,7.325,1.882c0,0,10.3-1.219,18.455,4.7,7.755,5.633,16.3,4.227,27.164-.311,0,0-17.136,6.206-24.59.32C668.553,375.955,658.073,368.363,646.863,374.624Z" transform="translate(-646.863 -372.264)" fill="#cc1219" fill-rule="evenodd"/>
    </g>
  </g>
</svg>
