<svg xmlns="http://www.w3.org/2000/svg" width="34" height="34" viewBox="0 0 34 34">
  <g id="그룹_28615" data-name="그룹 28615" transform="translate(-279 -432)">
    <rect id="사각형_31387" data-name="사각형 31387" width="34" height="34" rx="17" transform="translate(279 432)" fill="#fff"/>
    <path id="패스_35" data-name="패스 35" d="M6.023,17.019,5.8,16.758A39.8,39.8,0,0,1,.574,8.544,5.891,5.891,0,0,1,0,5.986a6.023,6.023,0,0,1,12.046,0,5.9,5.9,0,0,1-.588,2.567,40.043,40.043,0,0,1-5.214,8.206Z" transform="translate(289.977 440.49)"/>
    <path id="패스_36" data-name="패스 36" d="M13.155,15.95a3.155,3.155,0,1,1,3.155-3.155A3.157,3.157,0,0,1,13.155,15.95Z" transform="translate(282.845 433.615)" fill="#fff"/>
  </g>
</svg>
