<svg xmlns="http://www.w3.org/2000/svg" width="48" height="48" viewBox="0 0 48 48">
  <g id="그룹_28659" data-name="그룹 28659" transform="translate(-55 -377)">
    <circle id="타원_446" data-name="타원 446" cx="24" cy="24" r="24" transform="translate(55 377)" fill="#fafbfb"/>
    <g id="_9054395_bx_calendar_check_icon" data-name="9054395_bx_calendar_check_icon" transform="translate(65 387)">
      <path id="패스_66358" data-name="패스 66358" d="M22.2,4.4H19.8V2H17.4V4.4H10.2V2H7.8V4.4H5.4A2.4,2.4,0,0,0,3,6.8V23.6A2.4,2.4,0,0,0,5.4,26H22.2a2.4,2.4,0,0,0,2.4-2.4V6.8A2.4,2.4,0,0,0,22.2,4.4Zm0,19.2H5.4V9.2H22.2Z" fill="#cc1219"/>
      <path id="패스_66359" data-name="패스 66359" d="M12.418,17.414l7.889-5.707-1.955-1.414-5.935,4.293-3.17-2.293L7.293,13.707Z" transform="translate(0 2.576)" fill="#cc1219"/>
    </g>
  </g>
</svg>
