<svg xmlns="http://www.w3.org/2000/svg" width="48" height="48" viewBox="0 0 48 48">
  <g id="그룹_28618" data-name="그룹 28618" transform="translate(-55 -381)">
    <circle id="타원_408" data-name="타원 408" cx="24" cy="24" r="24" transform="translate(55 381)" fill="#fafbfb"/>
    <g id="그룹_28167" data-name="그룹 28167" transform="translate(20.5 83.791)">
      <g id="그룹_28166" data-name="그룹 28166" transform="translate(46.5 309.209)">
        <path id="패스_66284" data-name="패스 66284" d="M51.291,309.83a.8.8,0,0,0-.789-.621h-3.2a.786.786,0,0,0-.79.931l.722,3.492.757.229,4.448,1.346Zm15.933,9.735a5.3,5.3,0,0,0-3.576-.493L48.992,322.2l1.27,5.543a4.018,4.018,0,0,0,3.547,3.057l8.274.835a4.933,4.933,0,0,1-.047-.64,5.156,5.156,0,0,1,5.238-5.058,5.357,5.357,0,0,1,1.971.375A4.869,4.869,0,0,0,67.225,319.565Z" transform="translate(-46.5 -309.209)" fill="#cc1219"/>
        <path id="패스_66285" data-name="패스 66285" d="M67.517,330.133a3.236,3.236,0,1,0,3.223,3.236A3.23,3.23,0,0,0,67.517,330.133ZM47.757,317.1l1.262,5.519,4.721-1.049-.55-2.761Z" transform="translate(-46.74 -311.605)" fill="#cc1219"/>
      </g>
    </g>
  </g>
</svg>
