<svg xmlns="http://www.w3.org/2000/svg" width="48" height="48" viewBox="0 0 48 48">
  <g id="그룹_28621" data-name="그룹 28621" transform="translate(-55 -681)">
    <circle id="타원_410" data-name="타원 410" cx="24" cy="24" r="24" transform="translate(55 681)" fill="#fafbfb"/>
    <path id="gift-solid" d="M6.531,0h.095A3.876,3.876,0,0,1,9.965,1.91L11,3.672,12.036,1.91A3.876,3.876,0,0,1,15.374,0h.095A3.781,3.781,0,0,1,19.25,3.781,3.909,3.909,0,0,1,18.838,5.5h1.788A1.374,1.374,0,0,1,22,6.875v2.75A1.374,1.374,0,0,1,20.625,11H1.375A1.374,1.374,0,0,1,0,9.625V6.875A1.374,1.374,0,0,1,1.375,5.5H3.163A3.886,3.886,0,0,1,2.75,3.781,3.781,3.781,0,0,1,6.531,0ZM8.186,2.955a1.813,1.813,0,0,0-1.56-.893H6.531a1.719,1.719,0,1,0,0,3.438h3.15Zm7.283-.893h-.095a1.813,1.813,0,0,0-1.56.893L12.319,5.5h3.15a1.719,1.719,0,0,0,0-3.438ZM1.375,12.375h8.25V22H3.438a2.063,2.063,0,0,1-2.063-2.063Zm11,9.625V12.375h8.25v7.563A2.063,2.063,0,0,1,18.563,22Z" transform="translate(68 694)" fill="#cc1219"/>
  </g>
</svg>
