<svg xmlns="http://www.w3.org/2000/svg" width="48" height="48" viewBox="0 0 48 48">
  <g id="그룹_28619" data-name="그룹 28619" transform="translate(-55 -481)">
    <circle id="타원_407" data-name="타원 407" cx="24" cy="24" r="24" transform="translate(55 481)" fill="#fafbfb"/>
    <g id="settings_black_24dp_1_" data-name="settings_black_24dp (1)" transform="translate(67 493)">
      <path id="패스_66252" data-name="패스 66252" d="M0,0H24V24H0Z" fill="rgba(0,0,0,0)"/>
      <path id="패스_66253" data-name="패스 66253" d="M23.837,15.575a8.605,8.605,0,0,0,.077-1.175,7.028,7.028,0,0,0-.09-1.175l2.609-1.975a.6.6,0,0,0,.154-.762L24.12,6.338a.636.636,0,0,0-.758-.275l-3.071,1.2a9.142,9.142,0,0,0-2.082-1.175l-.463-3.175a.617.617,0,0,0-.617-.513H12.195a.6.6,0,0,0-.6.513l-.463,3.175A9.344,9.344,0,0,0,9.046,7.263l-3.071-1.2a.621.621,0,0,0-.758.275l-2.454,4.15a.559.559,0,0,0,.154.762l2.609,1.975a6.767,6.767,0,0,0-.026,2.35L2.891,17.55a.6.6,0,0,0-.154.763L5.2,22.462a.636.636,0,0,0,.758.275l3.071-1.2a9.142,9.142,0,0,0,2.082,1.175l.463,3.175a.627.627,0,0,0,.617.512h4.935a.594.594,0,0,0,.6-.512l.463-3.175a8.876,8.876,0,0,0,2.082-1.175l3.071,1.2a.621.621,0,0,0,.758-.275l2.467-4.15a.568.568,0,0,0-.154-.763ZM14.662,18.9a4.578,4.578,0,0,1-4.626-4.5,4.628,4.628,0,0,1,9.253,0A4.578,4.578,0,0,1,14.662,18.9Z" transform="translate(-2.662 -2.4)" fill="#cc1219"/>
    </g>
  </g>
</svg>
