<svg xmlns="http://www.w3.org/2000/svg" width="48" height="48" viewBox="0 0 48 48">
  <g id="그룹_28622" data-name="그룹 28622" transform="translate(-55 -783)">
    <circle id="타원_411" data-name="타원 411" cx="24" cy="24" r="24" transform="translate(55 783)" fill="#fafbfb"/>
    <g id="confetti-svgrepo-com" transform="translate(67 794.982)">
      <g id="그룹_28175" data-name="그룹 28175" transform="translate(0 7.604)">
        <g id="그룹_28174" data-name="그룹 28174" transform="translate(0)">
          <path id="패스_66291" data-name="패스 66291" d="M16.184,174.106,5.073,163a.786.786,0,0,0-1.111,1.111l.761.761L.045,178.132a.786.786,0,0,0,1,1l13.265-4.678.761.761a.786.786,0,1,0,1.111-1.111Zm-9.675,1.436-2.872-2.871.869-2.464,4.467,4.467Z" transform="translate(0 -162.765)" fill="#cc1219"/>
        </g>
      </g>
      <g id="그룹_28177" data-name="그룹 28177" transform="translate(11.791 5.75)">
        <g id="그룹_28176" data-name="그룹 28176">
          <path id="패스_66292" data-name="패스 66292" d="M258.035,122.642a.785.785,0,0,0-1.111,0l-4.9,4.9a.786.786,0,0,0,1.111,1.111l4.9-4.9A.785.785,0,0,0,258.035,122.642Z" transform="translate(-251.789 -122.412)" fill="#cc1219"/>
        </g>
      </g>
      <g id="그룹_28179" data-name="그룹 28179" transform="translate(13.686 13.186)">
        <g id="그룹_28178" data-name="그룹 28178">
          <path id="패스_66293" data-name="패스 66293" d="M295.684,280.959h-2.746a.786.786,0,1,0,0,1.571h2.746a.786.786,0,1,0,0-1.571Z" transform="translate(-292.153 -280.959)" fill="#cc1219"/>
        </g>
      </g>
      <g id="그룹_28181" data-name="그룹 28181" transform="translate(9.26 6.014)">
        <g id="그룹_28180" data-name="그룹 28180">
          <path id="패스_66294" data-name="패스 66294" d="M198.381,127.985a.786.786,0,0,0-.786.786v2.746a.786.786,0,0,0,1.571,0v-2.746A.786.786,0,0,0,198.381,127.985Z" transform="translate(-197.595 -127.985)" fill="#cc1219"/>
        </g>
      </g>
      <g id="그룹_28183" data-name="그룹 28183" transform="translate(19.285 11.613)">
        <g id="그룹_28182" data-name="그룹 28182">
          <path id="패스_66295" data-name="패스 66295" d="M415.705,248.213a2.357,2.357,0,1,0,0,3.333A2.356,2.356,0,0,0,415.705,248.213Zm-1.111,2.222h0a.786.786,0,1,1-.555-1.341A.789.789,0,0,1,414.594,250.435Z" transform="translate(-411.681 -247.522)" fill="#cc1219"/>
        </g>
      </g>
      <g id="그룹_28185" data-name="그룹 28185" transform="translate(7.691 0.018)">
        <g id="그룹_28184" data-name="그룹 28184" transform="translate(0 0)">
          <path id="패스_66296" data-name="패스 66296" d="M168.207.707a2.357,2.357,0,1,0,0,3.334h0A2.355,2.355,0,0,0,168.207.707ZM167.1,2.93h0a.786.786,0,1,1,0-1.111A.787.787,0,0,1,167.1,2.93Z" transform="translate(-164.185 -0.018)" fill="#cc1219"/>
        </g>
      </g>
      <g id="그룹_28187" data-name="그룹 28187" transform="translate(19.222 8.754)">
        <g id="그룹_28186" data-name="그룹 28186">
          <circle id="타원_417" data-name="타원 417" cx="0.786" cy="0.786" r="0.786" fill="#cc1219"/>
        </g>
      </g>
      <g id="그룹_28189" data-name="그룹 28189" transform="translate(13.692 3.224)">
        <g id="그룹_28188" data-name="그룹 28188">
          <circle id="타원_418" data-name="타원 418" cx="0.786" cy="0.786" r="0.786" fill="#cc1219"/>
        </g>
      </g>
      <g id="그룹_28191" data-name="그룹 28191" transform="translate(19.222 17.618)">
        <g id="그룹_28190" data-name="그룹 28190">
          <circle id="타원_419" data-name="타원 419" cx="0.786" cy="0.786" r="0.786" fill="#cc1219"/>
        </g>
      </g>
      <g id="그룹_28193" data-name="그룹 28193" transform="translate(4.829 3.224)">
        <g id="그룹_28192" data-name="그룹 28192">
          <circle id="타원_420" data-name="타원 420" cx="0.786" cy="0.786" r="0.786" fill="#cc1219"/>
        </g>
      </g>
      <g id="그룹_28195" data-name="그룹 28195" transform="translate(20.007 0.081)">
        <g id="그룹_28194" data-name="그룹 28194">
          <path id="패스_66297" data-name="패스 66297" d="M427.848,1.345a.786.786,0,0,0-.786.786v.786a.786.786,0,1,0,1.571,0V2.131A.786.786,0,0,0,427.848,1.345Z" transform="translate(-427.062 -1.345)" fill="#cc1219"/>
        </g>
      </g>
      <g id="그룹_28197" data-name="그룹 28197" transform="translate(20.007 3.997)">
        <g id="그룹_28196" data-name="그룹 28196">
          <path id="패스_66298" data-name="패스 66298" d="M427.848,84.922a.786.786,0,0,0-.786.786v.786a.786.786,0,1,0,1.571,0v-.786A.786.786,0,0,0,427.848,84.922Z" transform="translate(-427.062 -84.922)" fill="#cc1219"/>
        </g>
      </g>
      <g id="그룹_28199" data-name="그룹 28199" transform="translate(17.662 2.438)">
        <g id="그룹_28198" data-name="그룹 28198">
          <path id="패스_66299" data-name="패스 66299" d="M378.487,51.492H377.7a.786.786,0,1,0,0,1.571h.786a.786.786,0,1,0,0-1.571Z" transform="translate(-376.916 -51.492)" fill="#cc1219"/>
        </g>
      </g>
      <g id="그룹_28201" data-name="그룹 28201" transform="translate(21.579 2.438)">
        <g id="그룹_28200" data-name="그룹 28200">
          <path id="패스_66300" data-name="패스 66300" d="M462.064,51.492h-.786a.786.786,0,1,0,0,1.571h.786a.786.786,0,0,0,0-1.571Z" transform="translate(-460.493 -51.492)" fill="#cc1219"/>
        </g>
      </g>
    </g>
  </g>
</svg>
