<svg xmlns="http://www.w3.org/2000/svg" width="48" height="48" viewBox="0 0 48 48">
  <g id="그룹_28620" data-name="그룹 28620" transform="translate(-55 -581)">
    <circle id="타원_409" data-name="타원 409" cx="24" cy="24" r="24" transform="translate(55 581)" fill="#fafbfb"/>
    <path id="square-poll-vertical-solid" d="M20.571,32A3.3,3.3,0,0,1,24,35.143V50.857A3.3,3.3,0,0,1,20.571,54H3.429A3.3,3.3,0,0,1,0,50.857V35.143A3.3,3.3,0,0,1,3.429,32ZM6.857,41.429A1.646,1.646,0,0,0,5.143,43v4.714a1.646,1.646,0,0,0,1.714,1.571,1.646,1.646,0,0,0,1.714-1.571V43A1.646,1.646,0,0,0,6.857,41.429Zm3.429,6.286A1.646,1.646,0,0,0,12,49.286a1.646,1.646,0,0,0,1.714-1.571V38.286A1.646,1.646,0,0,0,12,36.714a1.646,1.646,0,0,0-1.714,1.571Zm6.857-3.143a1.646,1.646,0,0,0-1.714,1.571v1.571a1.721,1.721,0,0,0,3.429,0V46.143A1.646,1.646,0,0,0,17.143,44.571Z" transform="translate(67 562)" fill="#cc1219"/>
  </g>
</svg>
