<svg xmlns="http://www.w3.org/2000/svg" width="30" height="30" viewBox="0 0 30 30">
  <g id="그룹_28615" data-name="그룹 28615" transform="translate(-45 -273)">
    <g id="_2703067_ruble_cash_coin_icon" data-name="2703067_ruble_cash_coin_icon" transform="translate(44 272)">
      <path id="패스_50045" data-name="패스 50045" d="M16,1A15,15,0,1,0,31,16,15.016,15.016,0,0,0,16,1Zm0,28.125A13.125,13.125,0,1,1,29.125,16,13.139,13.139,0,0,1,16,29.125Z" fill="#444"/>
      <path id="패스_50046" data-name="패스 50046" d="M14.636,5.875H10.824a.938.938,0,0,0-.937.938v7.031H8.749a.938.938,0,0,0,0,1.875H9.887v1.25H8.749a.938.938,0,0,0,0,1.875H9.887V22.75a.938.938,0,0,0,1.875,0V18.844h3.573a.938.938,0,0,0,0-1.875H11.762v-1.25h2.875c3.389,0,6.146-2.208,6.146-4.922S18.025,5.875,14.636,5.875Zm0,7.969H11.762V7.75h2.875c2.355,0,4.271,1.367,4.271,3.047S16.991,13.844,14.636,13.844Z" transform="translate(1.703 1.219)" fill="#444"/>
    </g>
  </g>
</svg>
