<svg xmlns="http://www.w3.org/2000/svg" width="24" height="24" viewBox="0 0 24 24">
  <g id="그룹_28621" data-name="그룹 28621" transform="translate(-193 -161)">
    <g id="패스_66322" data-name="패스 66322" transform="translate(193 161)" fill="none">
      <path d="M12,0A12,12,0,1,1,0,12,12,12,0,0,1,12,0Z" stroke="none"/>
      <path d="M 12.00000190734863 1.000001907348633 C 9.061792373657227 1.000001907348633 6.29945182800293 2.144201278686523 4.221822738647461 4.221822738647461 C 2.144201278686523 6.29945182800293 1.000001907348633 9.061792373657227 1.000001907348633 12.00000190734863 C 1.000001907348633 14.93821144104004 2.144201278686523 17.70055198669434 4.221822738647461 19.77818298339844 C 6.29945182800293 21.85580253601074 9.061792373657227 23.00000190734863 12.00000190734863 23.00000190734863 C 14.93821144104004 23.00000190734863 17.70055198669434 21.85580253601074 19.77818298339844 19.77818298339844 C 21.85580253601074 17.70055198669434 23.00000190734863 14.93821144104004 23.00000190734863 12.00000190734863 C 23.00000190734863 9.061792373657227 21.85580253601074 6.29945182800293 19.77818298339844 4.221822738647461 C 17.70055198669434 2.144201278686523 14.93821144104004 1.000001907348633 12.00000190734863 1.000001907348633 M 12.00000190734863 1.9073486328125e-06 C 18.62742233276367 1.9073486328125e-06 24.00000190734863 5.372581481933594 24.00000190734863 12.00000190734863 C 24.00000190734863 18.62742233276367 18.62742233276367 24.00000190734863 12.00000190734863 24.00000190734863 C 5.372581481933594 24.00000190734863 1.9073486328125e-06 18.62742233276367 1.9073486328125e-06 12.00000190734863 C 1.9073486328125e-06 5.372581481933594 5.372581481933594 1.9073486328125e-06 12.00000190734863 1.9073486328125e-06 Z" stroke="none" fill="#acacac"/>
    </g>
    <path id="패스_66356" data-name="패스 66356" d="M6.89-6.643a2.579,2.579,0,0,1-.117.793,3,3,0,0,1-.312.676,3.391,3.391,0,0,1-.448.572q-.254.26-.527.494a8.178,8.178,0,0,0-.9.839,1.289,1.289,0,0,0-.332.891V-1.7H2.535v-.676a2.435,2.435,0,0,1,.11-.747,2.682,2.682,0,0,1,.3-.637A3.49,3.49,0,0,1,3.38-4.31a5.971,5.971,0,0,1,.52-.475q.26-.208.488-.416a3.3,3.3,0,0,0,.4-.429A1.943,1.943,0,0,0,5.05-6.1a1.475,1.475,0,0,0,.1-.546,1.575,1.575,0,0,0-.384-1.131,1.573,1.573,0,0,0-1.19-.4,1.319,1.319,0,0,0-1.092.533,2.174,2.174,0,0,0-.416,1.378H.325A3.52,3.52,0,0,1,.572-7.586a3.388,3.388,0,0,1,.683-1.079,3.209,3.209,0,0,1,1.027-.728,3.112,3.112,0,0,1,1.293-.267,4.213,4.213,0,0,1,1.5.24,2.849,2.849,0,0,1,1.034.65,2.515,2.515,0,0,1,.591.956A3.561,3.561,0,0,1,6.89-6.643ZM4.576.429a1.161,1.161,0,0,1-.325.826,1.125,1.125,0,0,1-.858.345,1.125,1.125,0,0,1-.858-.345A1.161,1.161,0,0,1,2.21.429,1.161,1.161,0,0,1,2.535-.4a1.125,1.125,0,0,1,.858-.345A1.125,1.125,0,0,1,4.251-.4,1.161,1.161,0,0,1,4.576.429Z" transform="translate(201.5 176.5)" fill="#acacac"/>
  </g>
</svg>
