<svg xmlns="http://www.w3.org/2000/svg" width="48" height="48" viewBox="0 0 48 48">
  <g id="그룹_28583" data-name="그룹 28583" transform="translate(-65 -354)">
    <circle id="타원_408" data-name="타원 408" cx="24" cy="24" r="24" transform="translate(65 354)" fill="#fafbfb"/>
    <g id="Bell" transform="translate(75.994 364)">
      <path id="패스_66340" data-name="패스 66340" d="M15.672,7.345a2.672,2.672,0,1,1,2.672-2.672A2.672,2.672,0,0,1,15.672,7.345Zm0-3.563a.891.891,0,1,0,.891.891A.891.891,0,0,0,15.672,3.782Z" transform="translate(-2.666)" fill="#cc1219"/>
      <path id="패스_66341" data-name="패스 66341" d="M18.235,24H12.891a.891.891,0,0,0-.891.891v.891a3.563,3.563,0,0,0,7.126,0v-.891A.891.891,0,0,0,18.235,24Z" transform="translate(-2.557 -3.345)" fill="#cc1219"/>
      <path id="패스_66342" data-name="패스 66342" d="M22.587,21.279a5.312,5.312,0,0,1-2.655-4.708V13.593C19.932,9.4,16.831,6,13.006,6S6.08,9.4,6.08,13.593v2.978a5.312,5.312,0,0,1-2.655,4.708.873.873,0,0,0-.4.946.788.788,0,0,0,.744.648h18.47a.788.788,0,0,0,.744-.648A.873.873,0,0,0,22.587,21.279Z" transform="translate(0 -0.437)" fill="#cc1219"/>
    </g>
  </g>
</svg>
