<svg xmlns="http://www.w3.org/2000/svg" width="48" height="48" viewBox="0 0 48 48">
  <g id="그룹_28585" data-name="그룹 28585" transform="translate(-65 -554)">
    <circle id="타원_432" data-name="타원 432" cx="24" cy="24" r="24" transform="translate(65 554)" fill="#fafbfb"/>
    <g id="live_help_black_24dp" transform="translate(77 566)">
      <path id="패스_66345" data-name="패스 66345" d="M0,0H24V24H0Z" fill="none"/>
      <path id="패스_66346" data-name="패스 66346" d="M19,2H5A2,2,0,0,0,3,4V18a2,2,0,0,0,2,2H9l3,3,3-3h4a2.006,2.006,0,0,0,2-2V4A2.006,2.006,0,0,0,19,2ZM13,18H11V16h2Zm2.07-7.75-.9.92A3.4,3.4,0,0,0,13,14H11v-.5a4.025,4.025,0,0,1,1.17-2.83l1.24-1.26A1.955,1.955,0,0,0,14,8a2,2,0,0,0-4,0H8a4,4,0,0,1,8,0A3.182,3.182,0,0,1,15.07,10.25Z" fill="#cc1219"/>
    </g>
  </g>
</svg>
