<svg xmlns="http://www.w3.org/2000/svg" width="48" height="48" viewBox="0 0 48 48">
  <g id="그룹_28584" data-name="그룹 28584" transform="translate(-65 -454)">
    <circle id="타원_431" data-name="타원 431" cx="24" cy="24" r="24" transform="translate(65 454)" fill="#fafbfb"/>
    <g id="chat" transform="translate(75.316 463.74)">
      <path id="패스_66343" data-name="패스 66343" d="M21.356,24.4c0,4.711-4.413,8.413-9.675,8.413a10.369,10.369,0,0,1-2.419-.265L4.53,34.92V30.07C-.1,25.632,1.93,18.578,8.316,16.517,14.575,14.485,21.356,18.515,21.356,24.4Z" transform="translate(-0.943 -8.461)" fill="#cc1219" stroke="#fafbfb" stroke-width="1"/>
      <path id="패스_66344" data-name="패스 66344" d="M33.388,17.079v4.85l-4.021-2.011c3.02-6.7-4.564-13.46-12.4-10.937C18.165,5.524,21.862,3,26.237,3,34.649,3,39,11.711,33.388,17.079Z" transform="translate(-9.61 -0.938)" fill="#cc1219" stroke="#fafbfb" stroke-width="1"/>
      <circle id="타원_438" data-name="타원 438" cx="1.188" cy="1.188" r="1.188" transform="translate(4.183 14.689)" fill="#e8f3ff"/>
      <circle id="타원_439" data-name="타원 439" cx="1.188" cy="1.188" r="1.188" transform="translate(9.729 14.689)" fill="#e8f3ff"/>
      <circle id="타원_440" data-name="타원 440" cx="1.188" cy="1.188" r="1.188" transform="translate(15.275 14.689)" fill="#e8f3ff"/>
    </g>
  </g>
</svg>
