<svg xmlns="http://www.w3.org/2000/svg" width="100" height="100" viewBox="0 0 100 100">
  <g id="그룹_28458" data-name="그룹 28458" transform="translate(-164 -160)">
    <circle id="타원_430" data-name="타원 430" cx="50" cy="50" r="50" transform="translate(164 160)" fill="#fff"/>
    <g id="그룹_28403" data-name="그룹 28403" transform="translate(-957.21 -384.281)">
      <g id="그룹_28399" data-name="그룹 28399" transform="translate(1135.166 557.648)">
        <path id="패스_66329" data-name="패스 66329" d="M1221.252,600.449A22.01,22.01,0,0,1,1206.58,621.2c-.065.023-.13.047-.195.071a8.772,8.772,0,0,0-4.506,3.8l-1.77,3.067-.176.3a.785.785,0,0,1-1.361,0l-1.92-3.325a8.853,8.853,0,0,0-4.724-3.917,22,22,0,1,1,29.323-20.749Z" transform="translate(-1163.208 -563.741)" fill="#cc1219"/>
        <g id="그룹_28393" data-name="그룹 28393" transform="translate(61.342 27.189)">
          <path id="패스_66330" data-name="패스 66330" d="M1880.379,769.834c.411-3.354-.251-7.767-3.12-7.767-1.766,0-.883,3.972-1.324,6.4,0-2.207.662-4.414-.662-6.179-1.1-1.765-4.193,0-4.026,2.113l-.088,12.148a2.765,2.765,0,0,0,2.707,2.733,1.424,1.424,0,0,0,.427-.032,1.341,1.341,0,0,0,1.04-1.125l.043-.336a72.114,72.114,0,0,0,.57-7.611l.8-.062-.068.716-.587,6.352.479,1.448a.409.409,0,0,0,.684.142l.03-.018.1-.06A8.634,8.634,0,0,0,1880,776.2q.169-.249.321-.51t.284-.533Z" transform="translate(-1871.159 -761.565)" fill="#2c2c2b"/>
        </g>
        <path id="패스_66331" data-name="패스 66331" d="M1925.481,767.181a68.893,68.893,0,0,1,.392,11.857q-.091,1.688-.275,3.368a.816.816,0,0,0,.765.839.83.83,0,0,0,.962-.617,75.444,75.444,0,0,0-.023-15.379.753.753,0,0,0-.175-.4c-.033-.039-.067-.081-.1-.123a.949.949,0,0,0-1.434.008.6.6,0,0,0-.106.444Z" transform="translate(-1860.43 -738.886)" fill="#505050"/>
        <path id="패스_66332" data-name="패스 66332" d="M1500.01,934.763V933A33,33,0,0,0,1533,900.011h1.765a34.764,34.764,0,0,1-34.759,34.751Z" transform="translate(-1463.965 -863.385)" fill="#e5434a"/>
        <path id="패스_66333" data-name="패스 66333" d="M1043.318,395.121c-.015-.015-.031-.031-.046-.044a35.223,35.223,0,0,0-49.708,0c-.015.013-.031.029-.046.044a34.854,34.854,0,0,0-10.325,24.887l2.648,0a32.215,32.215,0,0,1,9.548-23.009c.017-.017.031-.031.048-.046a32.573,32.573,0,0,1,45.96,0c.017.015.031.029.048.046A32.215,32.215,0,0,1,1050.995,420l2.648,0A34.854,34.854,0,0,0,1043.318,395.121Z" transform="translate(-982.374 -383.302)" fill="#505050"/>
        <g id="그룹_28394" data-name="그룹 28394" transform="translate(1.304 27.189)">
          <path id="패스_66334" data-name="패스 66334" d="M990.514,769.834c-.411-3.354.251-7.767,3.12-7.767,1.765,0,.883,3.972,1.324,6.4,0-2.207-.662-4.414.662-6.179,1.1-1.765,4.193,0,4.026,2.113l.088,12.148a2.765,2.765,0,0,1-2.707,2.733,1.423,1.423,0,0,1-.427-.032,1.341,1.341,0,0,1-1.04-1.125l-.043-.336a72.13,72.13,0,0,1-.57-7.611l-.8-.062.068.716.587,6.352-.479,1.448a.409.409,0,0,1-.684.142l-.03-.018-.1-.06A8.631,8.631,0,0,1,990.9,776.2q-.17-.249-.321-.51t-.284-.533Z" transform="translate(-990.291 -761.565)" fill="#2c2c2b"/>
        </g>
        <path id="패스_66335" data-name="패스 66335" d="M1044,767.181a68.893,68.893,0,0,0-.392,11.857q.091,1.688.275,3.368a.816.816,0,0,1-.765.839.83.83,0,0,1-.962-.617,75.435,75.435,0,0,1,.023-15.379.755.755,0,0,1,.175-.4c.033-.039.067-.081.1-.123a.949.949,0,0,1,1.434.008.606.606,0,0,1,.106.444Z" transform="translate(-1036.967 -738.886)" fill="#505050"/>
        <g id="그룹_28395" data-name="그룹 28395" transform="translate(0 15.276)">
          <path id="패스_66336" data-name="패스 66336" d="M971.193,604.935c.648-6.633,2.192-13.915,7.93-18.108.662-.441,2.207,1.765,1.986,2.207a33.873,33.873,0,0,0-5.942,20.81c.019.167.04.339.062.5.017.12.034.24.052.36l.034.23c.024.167.05.344.07.5l.013.1c.019.151.04.319.056.438l.04.3c.036.275.071.536.115.81l.034.216c.047.3.091.578.158.866l.058.246-.251.024c-.117.011-.157.016-.2.022s-.112.013-.289.031c-.1.01-.253.028-.433.048-.447.052-1,.116-1.267.124h-.045a.6.6,0,0,1-.644-.433l-.009-.022a9.274,9.274,0,0,1-.416-1.242c-.064-.229-.131-.465-.211-.708-.033-.1-.069-.236-.1-.371-.02-.077-.04-.154-.059-.222-.039-.139-.076-.294-.113-.445l-.038-.157c-.048-.2-.1-.4-.141-.606-.035-.166-.067-.334-.1-.5l-.025-.13c-.334-.714.108-1.817-.31-2.437A24.067,24.067,0,0,1,971.193,604.935Z" transform="translate(-971.166 -586.77)" fill="#2c2c2b"/>
        </g>
        <path id="패스_66337" data-name="패스 66337" d="M1145.882,362.648a36.387,36.387,0,0,0-25.9,10.727l1.047,1.047,1.874,1.872.981.981a31.117,31.117,0,0,1,44,0l.981-.981,1.874-1.872,1.047-1.047A36.387,36.387,0,0,0,1145.882,362.648Z" transform="translate(-1109.838 -362.648)" fill="#2c2c2b"/>
        <path id="패스_66338" data-name="패스 66338" d="M1460.336,1356.324h-3.051a2.972,2.972,0,0,1-2.972-2.972h0a2.972,2.972,0,0,1,2.972-2.972h3.051a2.972,2.972,0,0,1,2.972,2.972h0A2.972,2.972,0,0,1,1460.336,1356.324Z" transform="translate(-1421.383 -1283.057)" fill="#2c2c2b"/>
        <g id="그룹_28396" data-name="그룹 28396" transform="translate(62.125 15.276)">
          <path id="패스_66339" data-name="패스 66339" d="M1892.579,604.935c-.648-6.633-2.192-13.915-7.93-18.108-.662-.441-2.207,1.765-1.986,2.207a33.873,33.873,0,0,1,5.942,20.81c-.019.167-.04.339-.062.5-.017.12-.034.24-.052.36l-.034.23c-.024.167-.05.344-.07.5l-.013.1c-.019.151-.04.319-.056.438l-.04.3c-.036.275-.071.536-.115.81l-.035.216c-.047.3-.091.578-.158.866l-.057.246.251.024c.117.011.157.016.2.022s.112.013.289.031c.1.01.253.028.433.048.447.052,1,.116,1.267.124h.046a.6.6,0,0,0,.644-.433l.009-.022a9.273,9.273,0,0,0,.416-1.242c.064-.229.131-.465.211-.708.033-.1.069-.236.1-.371.02-.077.04-.154.059-.222.039-.139.076-.294.113-.445l.038-.157c.048-.2.1-.4.141-.606.035-.166.067-.334.1-.5l.025-.13c.334-.714-.108-1.817.31-2.437A24.066,24.066,0,0,0,1892.579,604.935Z" transform="translate(-1882.642 -586.77)" fill="#2c2c2b"/>
        </g>
      </g>
    </g>
    <path id="패스_66357" data-name="패스 66357" d="M5.73-18.12a2.057,2.057,0,0,1-1.56.63,2.033,2.033,0,0,1-1.56-.645,2.152,2.152,0,0,1-.6-1.515,2.152,2.152,0,0,1,.6-1.515,2.033,2.033,0,0,1,1.56-.645,2.033,2.033,0,0,1,1.56.645,2.152,2.152,0,0,1,.6,1.515A2.205,2.205,0,0,1,5.73-18.12ZM5.76,1.56H2.61v-16.8H5.76Z" transform="translate(210 219)" fill="#fff"/>
  </g>
</svg>
